<svg xmlns="http://www.w3.org/2000/svg" viewBox="0 0 254.45 254.45"><title>logo 2</title><g id="Layer_2" data-name="Layer 2"><g id="Layer_1-2" data-name="Layer 1"><path d="M106.62,141.62c-.15-.61-.53-.83-.68-1.44a1.68,1.68,0,0,0-1,1.21c-.91,4.1-3.41,7-4.7,10.85-.91,2.81-2.88,5.23-4.48,7.89a15.91,15.91,0,0,1-8.72,5.08,9.69,9.69,0,0,1-5.54-.23c-5.31-3.19-8.5-6.9-8.5-13.35A46,46,0,0,1,76.28,135c1.36-3.56,2.81-6.83,4.47-10.47a4.6,4.6,0,0,0,1.06-2.2,3.12,3.12,0,0,1,3-2c1.14.68,2.81.91,3.94,1.59a6.79,6.79,0,0,1,2.12,2,4.2,4.2,0,0,1,1.21,2.28,3.53,3.53,0,0,1,.3,2.5,24.85,24.85,0,0,1-3,6.22c-3.56,6.37-5,13.5-5.69,21.09l.08.3c-.23.38.53.83,1.06.38,2.58-1.29,4.85-3.79,6.75-6.52a47.8,47.8,0,0,0,4.1-6.83c2.5-4.17,5.08-8,7.66-11.91,1.44-2,2.58-3.87,3.72-5.76.38-1.06.68-2.43,1.82-3,2.35-2.2,3.19-5.31,3.72-8.34a3.91,3.91,0,0,1,1.82-3,4,4,0,0,1,3.72.68c1.82,2.12,3.49,3.64,4.93,5.54a3.43,3.43,0,0,1,.38,4.1c-2.73,5.84-4.4,12.06-6.37,18.36a25,25,0,0,0,0,11.61,1.34,1.34,0,0,0,1.9,1.14,9.12,9.12,0,0,0,2.58-1.29c3.72-1.9,6.22-4.78,8.72-7.66,2.2-2.81,4.09-5.54,6.07-8,1.82-3,3.64-6.07,5.76-9.18,1.9-2.73,3.72-5.76,5.92-8.57a1,1,0,0,1,.68.15l.08.3-.23.38a32,32,0,0,0-3.49,10.54,8.3,8.3,0,0,1-1.06,2.2c-.83,1.82-1.67,3.64-2.73,5.84-.91,1.52-1.82,3-1.06,4.78a49.44,49.44,0,0,1-2.5,5.46,29.41,29.41,0,0,0-2.28,3.79c-.91,2.81-3.19,4-4.93,6.07-.61.15-1.21.3-1.44.68-1.74.76-3.57,1.21-5,1.9a6.74,6.74,0,0,1-5.54-.23A21.77,21.77,0,0,1,109,151q-.91-1.71-2-4.32C106.85,145.11,106.7,143.21,106.62,141.62Zm35.19-10.09c-.08-.3-.08-.3.23-.38l-.61.15c.15.61-.08,1-.38,1.06-.23.38-.23.38-.15.68-.08-.3-.08-.3.15-.68C141.36,132.29,141.59,131.91,141.81,131.53Z"/><path d="M204.23,111.73a3.91,3.91,0,0,1-2.35,2.2L187,117.65l.3,1.21-2.73.68c-2.73.68-5.16,2.58-7.89,3.26s-5.46,1.37-7.51,3.49c-2.66,2.28-5.39,3-7.74,5.16l-1.21.3.23.91c1.06,4.25,3,6.67,4,10.92.61,2.43.15,5.77-2.28,7.66a18.39,18.39,0,0,1-5.16,2.58s-.83,1.82-1.21.3c-4.25,1.06-8.19,2-11.23,1.52-1.52.38-1.52.38-1.82-.83-2.43.61-2.81-.91-5-3.26l-1.74-7c1.21-1.59,1.74-4.63,2.58-6.45,4-2,6-5.69,9.86-8.27,2.12-1.82.91-1.52,3-3.34a1.53,1.53,0,0,0,1.14-1.9L151,118c-1.37-5.46-.83-9.78,2-15a34,34,0,0,1,9.41-14l3.94-1a1.53,1.53,0,0,1,1.9,1.14c2.73-.68,3,.53,4.85,1.36.38,1.52.76,3-.76,3.41-2.73.68-3.94,2.28-5.69,5.61-2.73,2-4.4,5.61-6.83,8.8-2,2.12-3,4.93-3.41,8.27a9.53,9.53,0,0,0-.15,5.84c.3,1.21.3,1.21,1.82.83,3.64-2.2,9-5.16,13-6.14,2.12-1.82,5.16-2.58,7.89-3.26,5.16-2.58,12.14-3,17.6-4.4l5.46-1.37c-.68,1.14-1.21,1.59-1.82,1.74l2.12-.53c.61-.15,1.52.91,2.5,1l-14.26,3.56a1.37,1.37,0,0,1-.61,1.44Zm-47.1,30.79a3.09,3.09,0,0,0,2-3.72c-.3-1.21-.3-1.21-1.82-2.12-.76-3-.76-3-3.41-.76-3.56,2.5-1.74,3.34-5.69,5.61-.83,1.82-2.35,2.2-3.19,4,3.64,3,8.65-.23,9.56-.45C156.07,144.73,157.44,143.74,157.13,142.53ZM145,134s1.59,1.21,1.21-.3Zm3.87-2.58a1.53,1.53,0,0,0-1.14,1.9A1.53,1.53,0,0,0,148.87,131.38Zm1.21-.3c1.21-.3,1.21-.3,2.35-2.2C150.91,129.26,150.91,129.26,150.08,131.08Zm2.88-2.66a6,6,0,0,0,3.64-2.2C155.08,126.6,153.57,127,153,128.42Zm14.56-8.8a15.56,15.56,0,0,0-5.46,2.65Zm4.25.23,1.21-.3-.3-1.21a15.4,15.4,0,0,0,5.08-2.88c-2.43.61-4.55,2.43-7.81,3.57l1.52-.38Zm.38,1.52-1.52.38.3,1.21,1.52-.38ZM195.66,111c-.3-1.21-1.82-.83-1.82-.83l-9.4,2.35c1.52.91,1.52.91,2.73.61Zm9.1-3.56,1.21-.3c.23.91.61,1.14,1.21,1l-2.12.53Zm5.46-.08,2.43-.61a2,2,0,0,0-.53,1.75c-2.12,1.82-5.46,1.37-6.67,1.67l4.25-1.06Z"/><path d="M127.33,6a121.81,121.81,0,0,1,73.94,25.27,121.21,121.21,0,0,1,29.88,158.31,120.4,120.4,0,0,1-74.53,55.22A120.88,120.88,0,0,1,53.19,223.19,121.21,121.21,0,0,1,23.3,64.87,120.4,120.4,0,0,1,97.83,9.65,121.77,121.77,0,0,1,127.33,6h0m0-6a127.21,127.21,0,1,0,123.3,96.38A127.55,127.55,0,0,0,127.32,0Z"/></g></g></svg>